# xmcd CD database file
#
# Track frame offsets:
#	150
#	22379
#	41874
#	60680
#	81813
#	99842
#	117885
#	142036
#	168696
#	185826
#	202462
#	221904
#	237471
#	258030
#	275598
#	298214
#
# Disc length: 4247 seconds
#
# Revision: 0
# Processed by: cddbd v1.5.1PL0 Copyright (c) Steve Scherf et al.
# Submitted via: CDex 1.51
#
DISCID=0d109510
DTITLE=Margarita caliente n°15 - Margarita caliente n°15
DYEAR=2002
DGENRE=Salsa
TTITLE0=La Infiel - Tibiri
TTITLE1=Salsa brava - Charlie D'cali y su salsa
TTITLE2=Acaramelao - yumuri
TTITLE3=Mix Croma latina 2 -più che puoi/mas que puedas
TTITLE4=El baile yà se formò - Rigo y su obra maestra
TTITLE5=Natalia Isabella - Bobby Rivas
TTITLE6=Mambo son - Luis Vaile
TTITLE7=Montuneate - Jimmy le M y la clave de londres
TTITLE8=Baila mi piano -  Charlie D'cali y su salsa
TTITLE9=Noche de rumberos - Los titanes
TTITLE10=Rayo de luz - Rigo y su Obra Maestra
TTITLE11=Tu son - Los titanes
TTITLE12=Herencia - Tibiri
TTITLE13=Algo Criollo - Los titanes
TTITLE14=Dònde Estaràs - Grupo Caneo
TTITLE15=El cacharrito - Freddy Cruz y la fuerza latina
EXTD=YEAR: 2002
EXTT0=
EXTT1=
EXTT2=
EXTT3=
EXTT4=
EXTT5=
EXTT6=
EXTT7=
EXTT8=
EXTT9=
EXTT10=
EXTT11=
EXTT12=
EXTT13=
EXTT14=
EXTT15=
PLAYORDER=
